<svg
   xmlns:dc="http://purl.org/dc/elements/1.1/"
   xmlns:cc="http://creativecommons.org/ns#"
   xmlns:rdf="http://www.w3.org/1999/02/22-rdf-syntax-ns#"
   xmlns:svg="http://www.w3.org/2000/svg"
   xmlns="http://www.w3.org/2000/svg"
   id="svg15"
   xml:space="preserve"
   viewBox="0 0 200 200"
   y="0px"
   x="0px"
   version="1.1"><metadata
     id="metadata21"><rdf:RDF><cc:Work
         rdf:about=""><dc:format>image/svg+xml</dc:format><dc:type
           rdf:resource="http://purl.org/dc/dcmitype/StillImage" /></cc:Work></rdf:RDF></metadata><defs
     id="defs19" /><linearGradient
     y2="200"
     x2="200"
     y1="0"
     x1="0"
     gradientUnits="userSpaceOnUse"
     id="SVGID_1_"><stop
       id="stop2"
       style="stop-color:#ffffff"
       offset="0" /><stop
       id="stop4"
       style="stop-color:#000000"
       offset="1" /></linearGradient><circle
     id="circle7"
     fill="#ff9800"
     r="26.40884"
     cx="143.42655"
     cy="138.92325" /><path
     id="path9"
     d="m98.74713 168.58276a68.58276 68.58276 0 1 1 68.58252 -68.583 68.66 68.66 0 0 1 -68.58252 68.583zm0-126.16943a57.58667 57.58667 0 1 0 57.58642 57.58691 57.65208 57.65208 0 0 0 -57.58642 -57.58691z" /><path
     id="path11"
     fill="#673ab7"
     d="m143.42655 99.99989a44.67937 44.67937 0 0 0 -89.35873 0v0.0002h89.35873z" /><path
     id="path13"
     style="mix-blend-mode: multiply; opacity: 0.3"
     d="m169.83539 138.92325a26.40884 26.40884 0 1 1 -26.40884 -26.40884 26.40884 26.40884 0 0 1 26.40884 26.40884zm-2.50574-38.92349a68.58252 68.58252 0 1 0 -68.58252 68.583 68.66035 68.66035 0 0 0 68.58252 -68.583zm-10.9961 0.00048a57.58643 57.58643 0 1 1 -57.58642 -57.58691 57.65207 57.65207 0 0 1 57.58642 57.58691zm-12.907-0.00035a44.67937 44.67937 0 0 0 -89.35873 0v0.0002h89.35873z"
     fill="url(#SVGID_1_)" /></svg>
